<svg width="160" height="111" viewBox="0 0 160 111" fill="none" xmlns="http://www.w3.org/2000/svg">
<path d="M142.908 49.4506C142.541 49.2305 142.284 48.8635 142.248 48.4232C142.211 47.8361 142.138 47.2857 142.174 46.7354C141.807 46.772 141.477 46.9922 141.33 47.3591C141.294 47.5059 141.257 47.6527 141.294 47.7994C140.817 47.6527 140.303 47.9095 140.119 48.3865C140.119 48.4232 140.119 48.4232 140.119 48.4599C139.679 48.3865 139.202 48.6434 139.055 49.0837V49.1204C138.798 49.2305 138.615 49.4139 138.541 49.6708C138.358 50.1845 138.615 50.6982 139.128 50.8816C139.459 50.9917 139.826 50.9183 140.083 50.6982C140.45 50.8082 140.817 50.6615 141.037 50.4046C141.22 50.4413 141.404 50.4413 141.587 50.4046C141.771 49.9276 142.064 49.3405 142.248 49.5607C142.358 49.6708 142.468 49.7442 142.615 49.7808C142.761 49.8175 142.908 49.8542 143.055 49.8175C142.982 49.7075 142.945 49.5607 142.908 49.4506Z" fill="#253655"/>
<path opacity="0.7" d="M127.128 86.3262C117.954 87.3536 108.927 86.0693 108.927 87.904L114.468 89.1515H126.871" fill="url(#paint0_linear)"/>
<path opacity="0.7" d="M153.66 78.5104C153.66 78.5104 137.514 77.8867 137.33 79.2076C137.147 80.5285 153.367 80.0515 153.367 80.0515" fill="url(#paint1_linear)"/>
<path d="M92.3393 31.9844L92.2659 35.2867V35.3601C92.2659 35.3601 100.303 36.7911 103.532 35.9472C106.761 35.1032 111.202 31.2872 111.862 30.8836C115.312 28.682 112.743 24.7192 109.66 26.8107C109.66 26.8107 104.706 31.9477 102.578 32.4247C100.449 32.9017 92.3393 31.9844 92.3393 31.9844Z" fill="#37517C"/>
<path d="M106.762 60.8255C106.872 61.119 110.028 61.8162 115.202 61.3392C120.376 60.8622 124.046 59.4678 124.046 59.1009C124.046 58.734 121.734 56.0921 116.596 56.5691C111.459 57.0461 106.615 60.4952 106.762 60.8255Z" fill="#485CC7"/>
<path d="M113.514 83.6846H111.349V87.1337H113.514V83.6846Z" fill="#FCD3B9"/>
<path d="M116.376 50.4775C116.193 52.6791 115.349 57.9629 114.688 66.072C113.991 74.8048 114.835 84.4183 114.651 84.6752C113.991 85.5925 110.615 85.8127 110.101 84.822C109.587 83.8313 108.486 71.8327 108.376 66.2554C108.303 63.1732 108.266 54.0367 108.193 52.3122L116.376 50.4775Z" fill="#5E7078"/>
<path d="M108.706 87.7575C108.67 87.6841 108.67 87.574 108.706 87.5006C108.78 87.4272 110.284 86.4365 113.44 86.4365C113.587 86.4365 113.661 86.5466 113.697 86.6567V87.6107C113.697 87.6841 113.661 87.7575 113.624 87.7942C113.587 87.8676 113.514 87.9042 113.44 87.9042H108.927C108.817 87.9042 108.743 87.8309 108.706 87.7575Z" fill="#253655"/>
<path d="M118.835 84.8584H116.67V88.3075H118.835V84.8584Z" fill="#FCD3B9"/>
<path d="M121.881 51.7617C121.734 53.9266 120.89 59.247 120.229 67.3561C119.495 76.089 120.376 85.6658 120.193 85.9593C119.532 86.8767 116.156 87.0968 115.606 86.1061C115.055 85.1154 114.028 73.1169 113.917 67.5396C113.844 64.4574 113.294 53.8532 113.22 52.1286L121.881 51.7617Z" fill="#6F878F"/>
<path d="M114.248 89.0416C114.211 88.9683 114.211 88.8582 114.248 88.7848C114.284 88.7114 115.826 87.7207 118.982 87.7207C119.128 87.7207 119.202 87.8308 119.239 87.9409V88.8949C119.239 88.9683 119.202 89.0417 119.165 89.0783C119.128 89.1517 119.055 89.1517 118.982 89.1517H114.468C114.395 89.1517 114.284 89.115 114.248 89.0416Z" fill="#253655"/>
<path d="M115.312 60.642C115.349 60.5686 115.385 60.5686 115.385 60.6787Z" fill="#829CA9"/>
<path d="M117.44 26.5533C115.936 24.6086 111.092 25.8562 109.477 27.4339C108.486 28.388 107.569 29.4887 107.606 33.4149C107.789 43.7622 106.761 60.8244 106.761 60.8244C110.064 62.2554 119.862 54.9535 124.046 59.1365C124.046 59.1365 123.972 55.4672 122.615 49.3395C122.211 47.5783 121.183 44.5695 120.853 42.6614C119.422 34.2588 119.202 28.9017 117.44 26.5533Z" fill="#314568"/>
<path d="M108.339 17.0132C109.844 16.3528 111.606 17.0499 112.229 18.5543L113.33 21.0861C113.991 22.5905 113.294 24.3518 111.789 24.9756C110.284 25.636 108.523 24.9389 107.899 23.4345L106.798 20.9027C106.138 19.3983 106.835 17.637 108.339 17.0132Z" fill="#FCD3B9"/>
<path d="M110.431 17.5645C110.321 17.7113 110.174 17.858 110.027 18.0048C109.697 18.2616 109.257 18.335 109.073 18.702C108.927 19.0689 109.147 19.5092 109.514 19.656H109.55C109.954 19.7661 110.394 19.7294 110.761 19.5092C111.605 19.0689 111.605 20.0963 112.266 20.3164C112.927 20.5366 113.257 20.133 113.22 19.5459C113.183 18.8487 113 18.1516 112.633 17.5278C112.119 16.7206 111.018 16.9774 110.431 17.5645Z" fill="#73858F"/>
<path d="M110.468 61.3021L110.908 61.192C109.404 55.5413 109.954 50.4777 110.211 46.1847C110.284 45.1573 110.394 44.1299 110.505 43.1025C110.615 42.0751 110.688 41.3779 110.761 40.4973C110.835 39.6167 110.872 37.782 110.908 36.4611C110.945 35.1401 110.651 27.7282 112.303 25.7468L111.789 25.6367C110.027 28.0217 110.505 35.1035 110.468 36.4611C110.431 37.8187 110.431 39.1397 110.321 40.4606C110.211 41.7815 110.174 42.1852 110.064 43.0658C109.954 43.9464 109.844 45.1206 109.771 46.1847C109.514 50.4777 108.963 55.6147 110.468 61.3021Z" fill="#485CC7"/>
<path d="M125.514 49.781C126.304 49.781 126.945 49.1403 126.945 48.35C126.945 47.5596 126.304 46.9189 125.514 46.9189C124.723 46.9189 124.083 47.5596 124.083 48.35C124.083 49.1403 124.723 49.781 125.514 49.781Z" fill="#FCD3B9"/>
<path d="M123.973 35.1402C123.018 32.6084 117.624 26.5174 117.624 26.5174C115.826 24.4993 111.826 26.8477 114.431 29.8565C115.092 30.5536 119.165 34.1862 120.156 36.5712C121.147 38.9563 123.385 47.1754 123.385 47.1754L126.541 46.1113C126.541 46.1113 124.56 36.7547 123.973 35.1402Z" fill="#37517C"/>
<path d="M90.211 35.2126C91.0014 35.2126 91.6422 34.5719 91.6422 33.7816C91.6422 32.9913 91.0014 32.3506 90.211 32.3506C89.4205 32.3506 88.7798 32.9913 88.7798 33.7816C88.7798 34.5719 89.4205 35.2126 90.211 35.2126Z" fill="#FCD3B9"/>
<path d="M116.119 52.4584C116.119 52.4584 115.202 52.275 111.716 50.844C107.055 48.9359 105.954 42.478 105.954 42.478V42.4046C102.101 44.8997 97.2935 45.2667 93.11 43.3953C88.7798 41.4873 85.3302 29.819 85.2935 29.819C68.2293 29.0852 73.1834 9.78477 73.2568 9.52793C73.3302 9.27108 68.7064 8.28037 66.1742 6.37235C64.633 5.19818 63.6054 3.51031 63.2752 1.60229L61.4036 0.978516L59.3853 10.115L68.8531 10.9589L65.7339 11.5827L67.422 31.5069C67.422 31.5069 74.4678 33.1581 79.2752 33.2314C80.5229 33.2314 82.1009 32.7177 83.3853 32.1307L79.8256 36.0935L82.7981 49.6698C82.7981 49.6698 99.2752 49.046 103.532 48.8259L102.835 50.7339L110.468 58.9898L116.486 54.6967L116.119 52.4584Z" fill="#845739"/>
<path opacity="0.76" d="M66.2845 99.3884C84.4237 99.3884 99.1285 98.6327 99.1285 97.7006C99.1285 96.7684 84.4237 96.0127 66.2845 96.0127C48.1452 96.0127 33.4404 96.7684 33.4404 97.7006C33.4404 98.6327 48.1452 99.3884 66.2845 99.3884Z" fill="url(#paint2_linear)"/>
<path d="M108.963 50.9913C107.128 49.1567 105.881 46.8083 105.404 44.2398L105.073 44.6068C99.9724 49.597 91.7889 49.5236 86.7981 44.4233C83.532 41.121 82.321 36.2775 83.6054 31.8377C76.743 33.6723 69.6605 29.5994 67.8256 22.7012C66.6513 18.2614 67.899 13.528 71.1651 10.299L71.2384 10.189C68.1559 10.4091 64.8898 10.0789 62.5779 7.62047C60.9632 5.9326 61.3302 2.85041 61.4036 0.942383C34.7247 4.61166 16.0825 29.2325 19.7522 55.9081C23.4219 82.5838 48.0458 101.224 74.7247 97.5544C96.8531 94.5089 114.064 76.823 116.56 54.6606C113.66 54.3303 110.982 53.0461 108.963 50.9913Z" fill="#C58F62"/>
<path d="M53.0367 71.5025C55.3269 71.5025 57.1835 69.6462 57.1835 67.3563C57.1835 65.0663 55.3269 63.21 53.0367 63.21C50.7465 63.21 48.8899 65.0663 48.8899 67.3563C48.8899 69.6462 50.7465 71.5025 53.0367 71.5025Z" fill="#845739"/>
<path d="M60.0459 55.6149C61.9308 55.6149 63.4587 54.0871 63.4587 52.2025C63.4587 50.3178 61.9308 48.79 60.0459 48.79C58.161 48.79 56.6331 50.3178 56.6331 52.2025C56.6331 54.0871 58.161 55.6149 60.0459 55.6149Z" fill="#845739"/>
<path d="M42.9817 39.4336C44.218 39.4336 45.2202 38.4315 45.2202 37.1953C45.2202 35.9591 44.218 34.957 42.9817 34.957C41.7454 34.957 40.7432 35.9591 40.7432 37.1953C40.7432 38.4315 41.7454 39.4336 42.9817 39.4336Z" fill="#845739"/>
<path d="M75.6057 47.9834C76.842 47.9834 77.8443 46.9813 77.8443 45.7451C77.8443 44.5089 76.842 43.5068 75.6057 43.5068C74.3694 43.5068 73.3672 44.5089 73.3672 45.7451C73.3672 46.9813 74.3694 47.9834 75.6057 47.9834Z" fill="#845739"/>
<path d="M87.5322 65.6689C88.7685 65.6689 89.7708 64.6668 89.7708 63.4306C89.7708 62.1945 88.7685 61.1924 87.5322 61.1924C86.2959 61.1924 85.2937 62.1945 85.2937 63.4306C85.2937 64.6668 86.2959 65.6689 87.5322 65.6689Z" fill="#845739"/>
<path d="M71.3487 85.7399C72.4026 85.7399 73.2569 84.8856 73.2569 83.8319C73.2569 82.7781 72.4026 81.9238 71.3487 81.9238C70.2948 81.9238 69.4404 82.7781 69.4404 83.8319C69.4404 84.8856 70.2948 85.7399 71.3487 85.7399Z" fill="#845739"/>
<path d="M58.3945 29.1227C60.2794 29.1227 61.8074 27.5949 61.8074 25.7103C61.8074 23.8256 60.2794 22.2979 58.3945 22.2979C56.5097 22.2979 54.9817 23.8256 54.9817 25.7103C54.9817 27.5949 56.5097 29.1227 58.3945 29.1227Z" fill="#845739"/>
<path d="M72.266 67.9439C73.8672 67.9439 75.1651 66.6461 75.1651 65.0452C75.1651 63.4443 73.8672 62.1465 72.266 62.1465C70.6649 62.1465 69.3669 63.4443 69.3669 65.0452C69.3669 66.6461 70.6649 67.9439 72.266 67.9439Z" fill="#845739"/>
<path d="M100.706 59.0638C101.862 59.0638 102.798 58.1274 102.798 56.9723C102.798 55.8172 101.862 54.8809 100.706 54.8809C99.5513 54.8809 98.6147 55.8172 98.6147 56.9723C98.6147 58.1274 99.5513 59.0638 100.706 59.0638Z" fill="#845739"/>
<path d="M41.7705 51.1012C42.6826 51.1012 43.4219 50.3619 43.4219 49.45C43.4219 48.5381 42.6826 47.7988 41.7705 47.7988C40.8585 47.7988 40.1191 48.5381 40.1191 49.45C40.1191 50.3619 40.8585 51.1012 41.7705 51.1012Z" fill="#845739"/>
<path d="M48.5596 17.1603C49.4108 17.1603 50.1009 16.4703 50.1009 15.6192C50.1009 14.7681 49.4108 14.0781 48.5596 14.0781C47.7084 14.0781 47.0183 14.7681 47.0183 15.6192C47.0183 16.4703 47.7084 17.1603 48.5596 17.1603Z" fill="#845739"/>
<path d="M90.1009 74.5113C91.1548 74.5113 92.0092 73.6571 92.0092 72.6033C92.0092 71.5496 91.1548 70.6953 90.1009 70.6953C89.047 70.6953 88.1926 71.5496 88.1926 72.6033C88.1926 73.6571 89.047 74.5113 90.1009 74.5113Z" fill="#845739"/>
<path d="M65.1468 39.9827C66.8492 39.9827 68.2294 38.6028 68.2294 36.9006C68.2294 35.1983 66.8492 33.8184 65.1468 33.8184C63.4443 33.8184 62.0642 35.1983 62.0642 36.9006C62.0642 38.6028 63.4443 39.9827 65.1468 39.9827Z" fill="#845739"/>
<path d="M148.706 55.1749C149.147 55.0281 149.257 55.6152 149.514 56.4225C149.771 57.2297 149.991 57.9635 149.514 58.0736C149.037 58.1837 149.073 57.4865 148.816 56.6793C148.56 55.8721 148.303 55.3217 148.706 55.1749Z" fill="#CC8719"/>
<path d="M139.055 53.1557C139.385 53.4493 139.238 54.2565 138.651 54.8436C138.064 55.4307 137.257 55.7976 137.073 55.4307C136.89 55.0638 137.183 54.5134 137.771 53.8896C138.358 53.2658 138.761 52.8255 139.055 53.1557Z" fill="#CC8719"/>
<path d="M147.385 55.7615C147.385 55.7615 150.174 54.991 150.725 54.514L154.431 51.1016C154.688 51.3217 154.945 51.5052 155.202 51.6886C155.202 51.6886 152.706 55.5047 151.569 56.4587C150.431 57.4127 147.128 57.8897 146.725 59.7244L144.523 58.4768" fill="#845739"/>
<path d="M141.257 55.2114C141.257 55.2114 138.945 53.4135 138.615 52.753L136.523 48.2031C136.193 48.2765 135.862 48.3499 135.569 48.46C135.569 48.46 136.413 52.9365 137.11 54.2207C137.807 55.505 139.973 57.3396 139.642 59.1743L142.872 58.7706" fill="#845739"/>
<path d="M142.174 68.7132C143.899 68.86 145.624 68.7866 147.312 68.4564C147.385 68.4564 147.495 68.4564 147.459 68.383C147.459 68.1995 147.422 68.0528 147.312 67.906C146.798 67.0988 146.064 66.475 145.147 66.1448C144.193 65.7778 143.202 65.5944 142.174 65.521C141.33 65.4476 140.486 65.521 139.642 65.6677C138.945 65.8145 137.734 66.2181 137.367 66.8786C137.881 67.4657 138.945 67.8326 139.642 68.0895C140.45 68.4197 141.294 68.6032 142.174 68.7132Z" fill="#CC8719"/>
<path d="M140.486 75.6855L139.642 78.5476L138.468 78.9145V75.7222L140.486 75.6855Z" fill="#845739"/>
<path d="M142.211 68.6398C141.991 67.1353 141.991 65.5942 141.881 64.0898H139.385C138.945 65.2273 138.615 66.4015 138.358 67.6124C138.174 68.6031 137.881 74.0336 137.807 75.3545C137.771 75.538 137.881 75.7215 138.064 75.7582C138.872 76.0517 140.596 76.2352 140.963 75.6114L142.394 69.7038C142.321 69.3369 142.284 69.0067 142.211 68.6398Z" fill="#6F878F"/>
<path d="M137.257 79.391C137.22 79.2809 137.22 79.2075 137.257 79.0975C137.807 78.437 138.541 77.9233 139.348 77.6298L139.789 77.483C139.862 77.4463 139.972 77.5197 140.009 77.6664L140.156 78.4003C140.156 78.5471 140.119 78.6572 140.046 78.6938L137.44 79.5011L137.257 79.391Z" fill="#1790BF"/>
<path d="M149.037 72.5293L151.349 74.2172L150.651 75.1712L147.826 74.1805L149.037 72.5293Z" fill="#845739"/>
<path d="M155.541 51.2128C155.906 51.2103 156.2 50.9125 156.197 50.5477C156.194 50.183 155.897 49.8893 155.532 49.8919C155.167 49.8944 154.873 50.1922 154.876 50.557C154.878 50.9217 155.176 51.2154 155.541 51.2128Z" fill="#845739"/>
<path d="M148.229 70.6947C147.275 69.4471 146.762 68.4197 146.688 67.906C146.468 66.7686 145.33 64.2734 145.33 64.2734C145.33 64.2734 140.413 65.3742 140.046 65.2275C140.229 65.521 140.413 65.8145 140.633 66.0714C141.404 67.4657 142.028 68.86 142.872 70.181C143.716 71.5019 144.817 73.0797 146.284 74.0704L147.642 74.9877C147.789 75.0611 147.973 75.0978 148.119 75.0244C149.037 74.6208 149.734 73.8503 150.101 72.8962C150.174 72.7128 150.101 72.5293 149.954 72.4192C149.294 71.9422 148.706 71.3551 148.229 70.6947Z" fill="#849DA8"/>
<path d="M147.091 52.2592C147.447 50.5531 146.401 48.8913 144.754 48.5473C143.108 48.2034 141.484 49.3075 141.127 51.0135C140.771 52.7195 141.817 54.3814 143.464 54.7253C145.11 55.0693 146.734 53.9652 147.091 52.2592Z" fill="#845739"/>
<path d="M150.835 77.0794C150.725 77.0794 150.652 77.006 150.615 76.9327C150.395 76.0887 150.395 75.2448 150.615 74.4009L150.725 73.9606C150.762 73.8505 150.872 73.8505 151.019 73.8872L151.716 74.1807C151.826 74.2174 151.863 74.3275 151.899 74.4376L151.055 77.0061C151.019 77.0794 150.945 77.1161 150.835 77.0794C150.835 77.0794 150.872 77.0794 150.835 77.0794Z" fill="#1AA6DD"/>
<path d="M146.982 59.7976C147.275 58.5868 148.34 58.6235 149.661 58.0364C149.037 57.486 148.78 56.0183 148.67 55.211C148.266 55.4679 147.826 55.6514 147.385 55.7614C145.918 56.2384 144.303 56.2017 142.835 55.688C141.367 55.1743 140.083 54.3304 139.055 53.1562C138.688 53.78 137.734 55.101 137.073 55.4312C138.028 56.9356 139.752 57.4126 139.679 58.9537C139.642 58.9904 139.642 59.0271 139.606 59.1005C139.349 59.871 138.284 63.1367 138.064 63.9439C137.844 64.7512 137.697 65.3015 137.551 65.962C137.477 66.2556 137.404 66.5858 137.367 66.8793C137.624 66.6959 137.881 66.5491 138.174 66.439L139.202 66.2189C140.376 66.1455 141.551 66.1455 142.725 66.2556C144.303 66.439 147.018 67.8333 147.459 68.3837C147.899 68.9341 147.055 63.9072 146.982 63.1734C146.872 62.0359 146.872 60.9351 146.982 59.7976Z" fill="#FDB633"/>
<path d="M158.652 35.7637L159.165 35.8738L156.34 48.8263C156.303 48.9364 156.23 48.9731 156.119 48.9731L156.009 48.9364C155.899 48.8997 155.863 48.8263 155.863 48.7162L158.652 35.7637Z" fill="#253655"/>
<path d="M157.991 41.6346H156.339C153.587 41.6713 150.835 41.0842 148.339 39.8734L146.872 39.1762L149.514 37.0114L148.523 33.4521L149.624 33.9659C152.119 35.14 154.872 35.7638 157.624 35.6904H159.275L157.991 41.6346Z" fill="#20BAFC"/>
<path d="M135.797 47.9111C136.162 47.9085 136.456 47.6107 136.453 47.246C136.451 46.8812 136.153 46.5876 135.788 46.5901C135.423 46.5927 135.13 46.8904 135.132 47.2552C135.135 47.62 135.433 47.9136 135.797 47.9111Z" fill="#845739"/>
<path opacity="0.7" d="M28.6698 110.763C15.8624 110.616 14.2845 110.69 12.2661 110.213L12.3762 108.892L28.6698 108.635" fill="url(#paint3_linear)"/>
<path d="M26.945 64.6408C27.6544 64.6408 28.2295 64.0658 28.2295 63.3565C28.2295 62.6472 27.6544 62.0723 26.945 62.0723C26.2357 62.0723 25.6606 62.6472 25.6606 63.3565C25.6606 64.0658 26.2357 64.6408 26.945 64.6408Z" fill="#C58F62"/>
<path d="M22.6508 42.9551L22.5413 43.4688Z" fill="#77D9F7"/>
<path d="M22.6883 42.3311C22.5048 43.2484 22.1378 45.2298 21.7342 46.0003C21.147 46.991 20.1195 47.6148 18.9819 47.6515C18.9452 47.9084 18.6883 49.1559 18.5415 49.7797L22.4314 50.6603C22.3947 49.4128 23.4222 44.9362 23.8993 42.7714" fill="#FDB633"/>
<path d="M13.9176 109.589H12.2662L11.3855 102.434H14.5782L13.9176 109.589Z" fill="#C58F62"/>
<path d="M14.0642 110.212V109.185C14.0642 109.002 13.734 109.185 13.0367 109.185C12.3395 109.185 12.0459 109.002 12.0459 109.185V110.212C12.0826 110.396 12.2294 110.579 12.4496 110.543H13.6973C13.8808 110.579 14.0275 110.433 14.0642 110.249V110.212Z" fill="#253655"/>
<path d="M22.2478 109.589H20.5597L19.679 102.434H22.9083L22.2478 109.589Z" fill="#C58F62"/>
<path d="M22.3579 110.212V109.185C22.3579 109.002 22.0277 109.185 21.3671 109.185C20.7066 109.185 20.3396 109.002 20.3396 109.185V110.212C20.3396 110.396 20.4864 110.543 20.6699 110.543H20.7066H21.991C22.2112 110.543 22.3946 110.396 22.3579 110.212Z" fill="#253655"/>
<path d="M5.99095 63.0626C6.7003 63.0626 7.27535 62.4877 7.27535 61.7784C7.27535 61.0691 6.7003 60.4941 5.99095 60.4941C5.28159 60.4941 4.70654 61.0691 4.70654 61.7784C4.70654 62.4877 5.28159 63.0626 5.99095 63.0626Z" fill="#FCD3B9"/>
<path d="M26.8716 64.6036C27.5809 64.6036 28.156 64.0287 28.156 63.3194C28.156 62.6101 27.5809 62.0352 26.8716 62.0352C26.1622 62.0352 25.5872 62.6101 25.5872 63.3194C25.5872 64.0287 26.1622 64.6036 26.8716 64.6036Z" fill="#FCD3B9"/>
<path d="M24.7065 59.1372L24.8166 59.871L24.7432 56.7522C20.4496 55.6514 14.3946 55.4679 9.44045 56.7522V59.1372C7.01843 61.192 5.55054 64.7512 5.55054 68.2003C5.55054 70.0349 6.17439 79.9787 7.97256 89.1885C9.66063 97.7747 10.5781 102.691 10.9083 103.022C11.2386 103.352 14.7615 103.682 15.4221 103.022C16.0826 102.361 15.9359 95.2062 16.1927 88.8583C16.4129 83.7947 17.1102 75.6489 17.1102 75.6489H17.1836C17.1836 75.6489 18.2845 102.361 19.0551 103.095C19.8258 103.829 22.8716 103.792 23.5689 103.095C24.2661 102.398 29.2203 74.3647 28.2661 67.4297C27.7891 64.3109 26.7982 61.1553 24.7065 59.1372Z" fill="#485FC4"/>
<path d="M22.8707 44.4814C23.3814 42.2698 22.1305 40.0926 20.0767 39.6184C18.0228 39.1442 15.9438 40.5526 15.4331 42.7642C14.9223 44.9757 16.1733 47.153 18.2271 47.6272C20.281 48.1014 22.36 46.693 22.8707 44.4814Z" fill="#FDB633"/>
<path d="M9.29368 49.376L4.85332 51.0638C3.97258 51.3941 3.05515 51.6876 2.21111 52.0545C1.36708 52.4215 0.743224 52.8985 0.449646 53.7057C0.156068 54.513 0.559737 55.4303 1.0001 56.2375C1.47717 56.9714 1.95423 57.7052 2.50469 58.4024L3.7524 60.1636C3.82579 60.237 4.33955 60.8608 4.30286 60.9342L5.40377 59.9435L4.81662 58.9528C4.41295 58.2556 4.00928 57.5585 3.679 56.8246C3.45882 56.4577 3.27533 56.0907 3.09185 55.6871C2.94506 55.3202 2.76157 54.8432 3.05515 54.513C3.20194 54.3662 3.42212 54.2561 3.64231 54.2194C5.0001 53.7791 6.3946 53.4489 7.82579 53.192L9.22029 52.9719H9.29368V49.376Z" fill="#FCD3B9"/>
<path d="M26.2111 51.0273L29.4772 52.9354C30.2845 53.3757 31.1286 53.7793 31.9359 54.293C32.7432 54.8067 33.257 55.3204 33.4038 56.201C33.5506 57.0816 33.0735 57.8889 32.5231 58.5861C31.9359 59.2832 31.3487 59.907 30.6882 60.5308L29.1836 62.0719L28.5231 62.7323L27.5689 61.5949L28.3396 60.7142L29.7708 58.8062C29.991 58.4393 30.2845 58.1457 30.5047 57.7421C30.7249 57.3385 30.9451 56.9716 30.7249 56.6046C30.5781 56.4212 30.3946 56.2744 30.1744 56.201C28.89 55.5772 27.5689 55.0635 26.2111 54.5865C25.7708 54.4031 25.3304 54.2563 24.8533 54.1462H24.8167L26.2111 51.0273Z" fill="#FCD3B9"/>
<path d="M33.4038 56.2011C33.257 55.3204 32.6331 54.7701 31.9359 54.293C31.2386 53.816 30.2845 53.3757 29.4772 52.9354L26.2111 51.0274C24.7799 50.1835 23.1652 49.7432 21.5139 49.7432L13.3671 49.1561C12.0093 48.9359 10.6148 49.0093 9.29368 49.3762H9.22029L8.92671 49.4863L4.85332 51.0641C3.97258 51.3943 3.05515 51.6879 2.21111 52.0548C1.36708 52.4217 0.743224 52.8987 0.449646 53.706C0.156068 54.5132 0.559737 55.4305 1.0001 56.2378L1.51387 57.0083C1.88084 56.4212 2.46799 55.9809 3.12854 55.7608V55.6874C2.98175 55.3204 2.79827 54.8434 3.09185 54.5132C3.23864 54.3664 3.45882 54.2564 3.679 54.2197C5.0368 53.7794 6.4313 53.4491 7.82579 53.1923L9.22029 52.9721H9.29368C9.44047 53.5225 9.51387 54.0729 9.47717 54.6233L9.40378 57.1918C13.7341 56.3845 19.8625 56.1277 24.6698 57.8156L24.7432 56.568C24.8166 55.8341 25.0001 55.137 25.2203 54.4398L25.2937 54.293L26.2111 54.6233C27.5689 55.1003 28.89 55.614 30.1744 56.2378C30.3946 56.3112 30.5781 56.4579 30.7249 56.6414C30.9084 56.9349 30.7616 57.3385 30.5781 57.6688C30.9818 57.7789 31.3487 58.0357 31.6423 58.3293C31.8625 58.5127 32.046 58.7329 32.1561 58.9897L32.523 58.6228C33.0735 57.8889 33.5873 57.1184 33.4038 56.2011Z" fill="#314568"/>
<path d="M23.6789 43.7257C23.8257 42.9918 23.9358 42.4047 23.9725 42.0745C24.0826 40.4967 23.6789 39.3959 22.1743 39.4326C21.6973 37.3044 18.7982 36.9742 17.2202 37.8181C15.9358 38.552 14.9083 39.6528 14.2844 41.0104C13.6973 42.258 12.7064 51.3945 12.9633 52.0916C13.5505 53.7061 15.7156 54.1097 16.156 53.3025C16.5963 52.4952 16.5596 44.166 16.6697 44.0192C18.3211 43.1019 19.8624 42.258 21.4037 40.9003" fill="#FDB633"/>
<path d="M149.624 53.4124C149.587 53.4124 149.587 53.4124 149.55 53.3757C149.697 53.2656 149.807 53.1189 149.844 52.9721C150.028 52.4951 149.771 51.9447 149.294 51.7979C149.33 51.7245 149.404 51.6512 149.44 51.5411C149.624 51.0641 149.367 50.5137 148.89 50.3669C148.853 50.3669 148.817 50.3302 148.78 50.3302C148.89 50.2201 148.963 50.1101 149 50C149.183 49.523 148.927 48.9726 148.45 48.8258C148.303 48.7891 148.193 48.7524 148.046 48.7891C148.083 48.7157 148.119 48.679 148.156 48.6057C148.339 48.1287 148.083 47.5783 147.605 47.4315C147.422 47.3581 147.239 47.3581 147.092 47.3948C147.128 46.9912 146.872 46.6243 146.468 46.4775C146.174 46.3674 145.844 46.4408 145.624 46.5876C145.514 46.4041 145.33 46.2206 145.11 46.1473C144.78 46.0372 144.45 46.1106 144.193 46.3307C144.119 46.294 144.083 46.2573 144.009 46.2206C143.532 46.0372 142.982 46.294 142.835 46.771C142.835 46.8077 142.798 46.8811 142.798 46.9178C142.725 46.8811 142.651 46.8077 142.541 46.771C142.064 46.5876 141.514 46.8444 141.367 47.3214C141.33 47.4315 141.33 47.5049 141.33 47.615C141.11 47.725 140.927 47.9452 140.89 48.202C140.817 48.6424 141.11 49.0827 141.55 49.1561C141.624 49.1561 141.697 49.1561 141.771 49.1561C141.771 49.1927 141.771 49.2294 141.771 49.2661C141.844 49.7064 142.248 50.0367 142.688 49.9633C142.835 49.9266 142.982 49.8899 143.128 49.7798C143.202 50.0367 143.422 50.2568 143.679 50.3669C143.862 50.4403 144.046 50.4403 144.193 50.4036C144.229 50.7338 144.45 51.0274 144.817 51.1742C145 51.2475 145.147 51.2475 145.33 51.2108C145.367 51.5411 145.587 51.8713 145.954 51.9814C146.138 52.0548 146.321 52.0548 146.505 51.9814C146.431 52.4217 146.688 52.8253 147.128 52.9721C147.312 53.0455 147.495 53.0455 147.679 53.0088C147.642 53.4124 147.899 53.816 148.303 53.9261C148.413 53.9628 148.523 53.9628 148.633 53.9628C148.45 54.4398 148.706 54.9902 149.183 55.137C149.661 55.3204 150.211 55.0636 150.358 54.5866C150.358 54.1096 150.138 53.5959 149.624 53.4124Z" fill="#253655"/>
<path d="M107.018 22.8847C106.468 22.8847 106.027 22.4444 106.027 21.894C106.027 21.3436 106.468 20.9033 107.018 20.9033C107.569 20.9033 108.046 21.3436 108.046 21.894C108.046 22.4444 107.569 22.8847 107.018 22.8847ZM107.018 21.1235C106.614 21.1235 106.284 21.4537 106.284 21.894C106.284 22.3343 106.614 22.6646 107.018 22.6646C107.422 22.6646 107.789 22.3343 107.789 21.894C107.789 21.4537 107.422 21.1235 107.018 21.1235Z" fill="#253655"/>
<path d="M109.294 22.1142C108.743 22.1142 108.266 21.6739 108.266 21.1235C108.266 20.5731 108.706 20.1328 109.294 20.1328C109.881 20.1328 110.321 20.5731 110.321 21.1235C110.321 21.6739 109.844 22.1142 109.294 22.1142ZM109.294 20.353C108.89 20.353 108.523 20.6832 108.523 21.1235C108.523 21.5638 108.853 21.8941 109.294 21.8941C109.734 21.8941 110.064 21.5638 110.064 21.1235C110.064 20.6832 109.697 20.353 109.294 20.353Z" fill="#253655"/>
<path d="M107.973 21.8576L107.789 21.6742C107.789 21.6742 107.789 21.6375 107.826 21.6375C107.899 21.5274 108.083 21.3072 108.523 21.3439L108.486 21.6008C108.193 21.5641 108.083 21.7109 108.009 21.7842C108.009 21.8576 108.009 21.8576 107.973 21.8576Z" fill="#253655"/>
<defs>
<linearGradient id="paint0_linear" x1="127.128" y1="87.7388" x2="108.927" y2="87.7388" gradientUnits="userSpaceOnUse">
<stop stop-opacity="0"/>
<stop offset="0.15" stop-opacity="0.05"/>
<stop offset="1" stop-opacity="0.1"/>
</linearGradient>
<linearGradient id="paint1_linear" x1="153.661" y1="79.2494" x2="137.329" y2="79.2494" gradientUnits="userSpaceOnUse">
<stop stop-opacity="0"/>
<stop offset="0.15" stop-opacity="0.05"/>
<stop offset="1" stop-opacity="0.1"/>
</linearGradient>
<linearGradient id="paint2_linear" x1="33.4404" y1="97.7006" x2="99.1284" y2="97.7006" gradientUnits="userSpaceOnUse">
<stop stop-opacity="0"/>
<stop offset="0.5" stop-opacity="0.3"/>
<stop offset="1" stop-opacity="0"/>
</linearGradient>
<linearGradient id="paint3_linear" x1="43.3015" y1="109.699" x2="26.8976" y2="109.699" gradientUnits="userSpaceOnUse">
<stop stop-opacity="0"/>
<stop offset="0.15" stop-opacity="0.05"/>
<stop offset="1" stop-opacity="0.1"/>
</linearGradient>
</defs>
</svg>
